<svg xmlns="http://www.w3.org/2000/svg" viewBox="0 0 512 512">
  <defs>
    <linearGradient id="grad1" x1="0%" y1="0%" x2="100%" y2="100%">
      <stop offset="0%" style="stop-color:#4f46e5;stop-opacity:1" />
      <stop offset="100%" style="stop-color:#3730a3;stop-opacity:1" />
    </linearGradient>
  </defs>
  <!-- Background: Blue Rounded Square -->
  <rect x="32" y="32" width="448" height="448" rx="80" ry="80" fill="url(#grad1)" />
  
  <!-- Car Icon: White Silhouette Profile -->
  <path fill="#ffffff" d="M380 192h-24c-5.4 0-10.5 1.6-14.8 4.4L307.8 219c-4.6 3-10 4.7-15.6 4.7h-72.4c-8.9 0-17.1-4.9-21.2-12.8l-12.9-24.5c-6.8-12.9-20.2-21.1-34.8-21.1H132c-15.5 0-28 12.5-28 28v86.1c0 8.2 3 16 8.5 22.1l23.5 27.4V368c0 17.7 14.3 32 32 32h16c17.7 0 32-14.3 32-32v-8h152v8c0 17.7 14.3 32 32 32h16c17.7 0 32-14.3 32-32v-38.6l23.5-27.4c5.5-6.1 8.5-13.9 8.5-22.1v-60c0-26.5-21.5-48-48-48zm-220 120c-13.2 0-24-10.8-24-24s10.8-24 24-24 24 10.8 24 24-10.8 24-24 24zm224 0c-13.2 0-24-10.8-24-24s10.8-24 24-24 24 10.8 24 24-10.8 24-24 24z" transform="translate(16, 48)"/>
</svg>
